<?xml version="1.0" encoding="utf-8"?>
<!-- Generator: Adobe Illustrator 26.0.3, SVG Export Plug-In . SVG Version: 6.00 Build 0)  -->
<svg version="1.1" id="Layer_1" xmlns="http://www.w3.org/2000/svg" xmlns:xlink="http://www.w3.org/1999/xlink" x="0px" y="0px"
	 viewBox="0 0 360 360" style="enable-background:new 0 0 360 360;" xml:space="preserve">
<style type="text/css">
	.st0{fill:none;stroke:#FF9200;stroke-width:8;stroke-miterlimit:10;}
	.st1{stroke:#000000;stroke-width:8;stroke-miterlimit:10;}
	.st2{fill:#FF9200;}
	.st3{font-family:'EgyptianSlateStd-Bold';}
	.st4{font-size:88.2865px;}
</style>
<path class="st0" d="M38.22,146.91l-16.17,12.6l12.71-27.79l-18.35,5.94l15.3-19.16l-13.96-2.02l12.17-12.77l-16.2-1.68l11.98-17.44
	l-12.07-0.15c0,0,10.64-17.35,10.67-18.7c0.35-22.57,5.19-35.66,10.63-45.39C49.97-6.56,121.8,79.75,121.8,79.75
	c37.39-17.44,76.42-13.6,116.4,2.51c0,0,71.83-86.31,86.86-59.41c5.44,9.73,10.28,22.82,10.63,45.39
	c0.02,1.35,10.67,18.7,10.67,18.7l-13.46,2.02l13.37,15.57l-16.2,1.68l12.17,12.77L328.29,121l15.3,19.16l-18.35-5.94l12.71,27.79
	l-16.17-12.6"/>
<path class="st0" d="M38.75,149c3.29,216.63,141.24,201.56,141.24,201.56s135.31,0,142.41-198.4"/>
<path class="st1" d="M45.68,146.74l-15.32,9.51l12.04-20.98l-17.38,4.48l14.5-14.47l-13.23-1.52l11.53-9.65l-15.35-1.27l12.67-11.76
	L22.4,99.56l8.91-17.72l-8.91-0.87c0,0,11.31-48.92,15.74-55.25C52.38,5.43,120.3,90.46,120.3,90.46
	c32.97-26.59,78.69-24.69,118.83-0.08c0,0,68.99-82.71,83.24-62.4c3.93,5.6,19.25,60.6,19.25,60.6l-13.69-1.12l9.67,14l-12.75,1.52
	l12.67,11.76l-15.35,1.27l11.53,9.65l-13.23,1.52l14.5,14.47l-17.38-4.48l12.04,20.98l-15.32-9.51"/>
<path class="st1" d="M42.04,139.58C45.65,356.77,180,345.88,180,345.88s132.17,0,139.1-203.07"/>
<text transform="matrix(1 0 0 1 96.5254 207.3019)" class="st2 st3 st4">ACC</text>
</svg>
