<?xml version="1.0" encoding="utf-8"?>
<!-- Generator: Adobe Illustrator 26.1.0, SVG Export Plug-In . SVG Version: 6.00 Build 0)  -->
<svg version="1.1" id="Layer_1" xmlns="http://www.w3.org/2000/svg" xmlns:xlink="http://www.w3.org/1999/xlink" x="0px" y="0px"
	 viewBox="0 0 200 200" style="enable-background:new 0 0 200 200;" xml:space="preserve">
<style type="text/css">
	.st0{fill:#F4C1D8;}
	.st1{stroke:#000000;stroke-width:3;stroke-miterlimit:10;}
	.st2{fill:#808080;}
	.st3{fill:#FF7BAC;}
</style>
<path class="st0" d="M12.48,108.95c0-141.03,175.04-141.03,175.04,0"/>
<g>
	<polygon class="st1" points="88.88,55.59 88.88,68.61 93.4,68.61 93.4,50.77 106.48,50.77 106.48,67.9 111,67.9 111,55.65 
		122.78,55.54 122.78,107.51 77.22,107.51 77.22,55.59 	"/>
	<line class="st1" x1="88.88" y1="68.61" x2="88.88" y2="107.51"/>
	<line class="st1" x1="93.4" y1="68.61" x2="93.4" y2="107.51"/>
	<line class="st1" x1="106.48" y1="67.9" x2="106.48" y2="107.51"/>
	<line class="st1" x1="111" y1="67.9" x2="111" y2="107.51"/>
	<polyline class="st1" points="79.3,55.59 79.3,46.68 86.35,46.68 86.35,55.59 	"/>
	<polyline class="st1" points="113.49,55.59 113.49,46.68 120.54,46.68 120.54,55.59 	"/>
	<polygon class="st1" points="82.83,33.11 80.79,46.68 84.86,46.68 	"/>
	<polygon class="st1" points="117.02,33.11 114.98,46.68 119.05,46.68 	"/>
	<polyline class="st1" points="95.7,50.77 95.7,39.89 104.3,39.89 104.3,50.77 	"/>
	<polygon class="st1" points="100,22.54 97.4,39.89 102.6,39.89 	"/>
</g>
<g>
	<path class="st2" d="M248.14,61.88c-0.22,0.65-0.52,1.18-0.9,1.59c-3.55-1.33-6.12-3.53-7.77-5.44c-0.48,0.72-1.28,1.92-1.92,5.12
		h-1.91V46.13h1.91C238.16,49.23,240.13,58.91,248.14,61.88z"/>
	<path class="st2" d="M270.62,49.41c0,6.3-3.3,12.56-11.01,14.58c-0.72-0.46-1.2-1.12-1.53-2.06c4.36-1.61,6.95-5.39,6.95-9.49
		c0-5.12-3.68-8.05-7.65-10.1V33.3C265.56,37.04,270.62,40.63,270.62,49.41z"/>
	<path class="st2" d="M241.15,19.85c0,4.56,3.42,7.37,7.64,9.57v9.03c-6.88-3.19-12.76-6.97-12.76-15.48
		c0-6.55,4.72-12.51,12.76-13.05v1.95C243.82,12.46,241.15,16.06,241.15,19.85z"/>
	<path class="st2" d="M265.99,10.83v13.81h-1.68c-1.35-5.41-3.96-8.81-6.93-10.74v-2.36c2.3,1.19,3.8,2.77,4.86,3.92
		c1.75-2.16,1.91-3.68,2.07-4.63H265.99z"/>
	<path class="st2" d="M257.38,11.54v2.36c-2.29-1.5-4.81-2.12-7.13-2.12c-0.51,0-0.99,0.03-1.46,0.09V9.92
		c0.4-0.04,0.81-0.05,1.22-0.05C253.12,9.87,255.51,10.58,257.38,11.54z"/>
	<path class="st3" d="M257.38,33.3v9.04c-1.84-0.96-3.75-1.73-5.37-2.44c-1.09-0.48-2.17-0.96-3.22-1.45v-9.03
		c1.62,0.85,3.36,1.6,5.06,2.33C255.08,32.28,256.26,32.8,257.38,33.3z"/>
	<path class="st2" d="M259.61,63.99c-1.66,0.44-3.52,0.68-5.6,0.68c-2.55,0-4.81-0.47-6.77-1.2c0.38-0.41,0.68-0.94,0.9-1.59
		c1.5,0.55,3.2,0.87,5.15,0.87c1.76,0,3.37-0.29,4.79-0.82C258.41,62.87,258.89,63.53,259.61,63.99z"/>
	<path class="st3" d="M264.91,64.93c-2.52,0-4.19-0.22-5.3-0.94c-1.66,0.44-3.52,0.68-5.6,0.68c-2.55,0-4.81-0.47-6.77-1.2
		c-1.08,1.14-2.9,1.46-5.97,1.46h-3.05v1.97h29.64v-1.97H264.91z M281.83,7.63h-57.48l-0.27,14.24h1.97
		c1.97-8.42,3.04-12.27,10.38-12.27h12.36v0.32c0.4-0.04,0.81-0.05,1.22-0.05c3.11,0,5.5,0.71,7.37,1.67V9.6h9.49
		c7.26,0,11.37,0,13.43,12.27h1.88L281.83,7.63z"/>
	<path class="st3" d="M258.08,61.93c-1.42,0.53-3.03,0.82-4.79,0.82c-1.95,0-3.65-0.32-5.15-0.87c0.67-2,0.65-5.23,0.65-10.38V38.45
		c1.05,0.49,2.13,0.97,3.22,1.45c1.62,0.71,3.53,1.48,5.37,2.44v9.16C257.38,56.69,257.38,59.94,258.08,61.93z"/>
	<path class="st3" d="M257.38,13.9v19.4c-1.12-0.5-2.3-1.02-3.53-1.55c-1.7-0.73-3.44-1.48-5.06-2.33V11.87
		c0.47-0.06,0.95-0.09,1.46-0.09C252.57,11.78,255.09,12.4,257.38,13.9z"/>
</g>
<g>
	<path d="M10.96,129.22l0.11-5.74h23.18l0.14,5.74h-0.76c-0.83-4.95-2.49-4.95-5.42-4.95h-3.83v16.9c0,4.62,0,5.42,3.03,5.42h1.19
		v0.79H16.67v-0.79h1.23c3.07,0,3.03-0.79,3.03-5.42v-16.9h-4.98c-2.96,0-3.39,1.55-4.19,4.95H10.96z"/>
	<path d="M49.87,137.85c-0.04,0.51-0.07,1.08-0.07,1.7c0,1.84,0.07,7.47,4.73,7.47c0.79,0,3.25-0.07,4.58-2.89h0.83
		c-0.11,0.5-1.52,3.83-5.88,3.83c-3.18,0-7.18-2.42-7.18-7.69c0-4.48,2.96-7.91,7.04-7.91c3.75,0,5.92,2.78,6.03,5.49H49.87z
		 M56.84,137.13c0.04-0.22,0.07-0.4,0.07-0.72c0-2.38-1.7-3.25-3.14-3.25c-3.21,0-3.68,3.03-3.83,3.97H56.84z"/>
	<path d="M85.64,133.59c-2.42,0-3.94,2.02-4.66,3.1v5.74c0,3.9,0,4.15,2.38,4.15v0.79h-7.29v-0.79c2.38,0,2.38-0.22,2.38-4.15v-4.3
		c0-3.94,0-4.15-2.38-4.15v-0.79c1.23-0.14,2.78-0.5,3.97-0.83h0.47c0.29,0.83,0.43,2.24,0.47,3c1.52-1.8,3.39-3,5.6-3
		c3.25,0,4.19,1.99,4.37,3.14c1.73-2.02,3.54-3.14,5.74-3.14c3.18,0,4.51,1.73,4.51,4.69v5.38c0,3.86,0,4.15,2.38,4.15v0.79h-7.4
		v-0.79c2.49,0,2.49-0.18,2.49-4.15v-4.51c0-1.91,0-4.33-2.92-4.33c-2.42,0-3.94,2.02-4.66,3.1v5.74c0,3.9,0,4.15,2.38,4.15v0.79
		h-7.29v-0.79c2.38,0,2.38-0.29,2.38-4.15v-4.3C88.57,136.55,88.86,133.59,85.64,133.59z"/>
	<path d="M123.29,132.36c0.18,0.61,0.32,1.59,0.29,2.38c1.12-1.16,2.89-2.38,5.2-2.38c3.86,0,6.97,2.96,6.97,7.58
		c0,4.3-2.64,8.01-7.29,8.01c-2.35,0-3.65-1.01-4.87-2.13v5.49c0,3.93,0,4.15,2.38,4.15v0.79h-7.54v-0.79h0.5
		c1.91,0,2.13-0.51,2.13-3.36V136.8c0-2.2-0.22-2.74-2.13-2.74h-0.5v-0.83c1.73-0.18,3.61-0.69,4.4-0.87H123.29z M123.58,144.67
		c0.65,0.79,1.99,2.35,4.26,2.35c1.26,0,4.98-0.61,4.98-7.18c0-5.88-3.79-6.39-4.84-6.39c-2.38,0-3.75,1.66-4.41,2.42V144.67z"/>
	<path d="M156.6,142.43c0,4.04,0,4.15,2.56,4.15v0.79h-7.73v-0.79h0.47c2.13,0,2.17-0.4,2.17-4.15v-14.3c0-2.67-0.04-3.47-2.42-3.47
		v-0.79c1.55-0.04,3.32-0.29,4.69-0.76h0.25V142.43z"/>
	<path d="M177.97,137.85c-0.04,0.51-0.07,1.08-0.07,1.7c0,1.84,0.07,7.47,4.73,7.47c0.79,0,3.25-0.07,4.58-2.89h0.83
		c-0.11,0.5-1.52,3.83-5.88,3.83c-3.18,0-7.18-2.42-7.18-7.69c0-4.48,2.96-7.91,7.04-7.91c3.75,0,5.92,2.78,6.03,5.49H177.97z
		 M184.94,137.13c0.04-0.22,0.07-0.4,0.07-0.72c0-2.38-1.7-3.25-3.14-3.25c-3.21,0-3.68,3.03-3.83,3.97H184.94z"/>
	<path d="M11,166.79h10.9v0.79H21.4c-3.14,0-3.21,0.29-3.21,5.16v11.73c0,4.62,0,5.42,3.03,5.42h0.69v0.79H11v-0.79h0.69
		c3.03,0,3.03-0.79,3.03-5.42v-11.73c0-4.84-0.07-5.16-3.21-5.16H11V166.79z"/>
	<path d="M28.25,175.67c0.29,0.83,0.43,2.24,0.47,3c1.84-2.02,3.47-3,5.56-3c3.32,0,4.51,2.31,4.51,4.73v5.34
		c0,3.94,0,4.15,2.38,4.15v0.79h-7.4v-0.79c2.49,0,2.49-0.22,2.49-4.15v-4.66c0-3.29-1.16-4.33-2.92-4.33
		c-2.06,0-3.39,1.73-4.62,3.1v5.88c0,3.9,0,4.15,2.38,4.15v0.79h-7.29v-0.79c2.38,0,2.38-0.22,2.38-4.15v-4.3
		c0-3.94,0-4.15-2.38-4.15v-0.79c1.48-0.22,3.36-0.58,3.97-0.83H28.25z"/>
	<path d="M47.42,175.67c0.29,0.83,0.43,2.24,0.47,3c1.84-2.02,3.47-3,5.56-3c3.32,0,4.51,2.31,4.51,4.73v5.34
		c0,3.94,0,4.15,2.38,4.15v0.79h-7.4v-0.79c2.49,0,2.49-0.22,2.49-4.15v-4.66c0-3.29-1.16-4.33-2.92-4.33
		c-2.06,0-3.39,1.73-4.62,3.1v5.88c0,3.9,0,4.15,2.38,4.15v0.79h-7.29v-0.79c2.38,0,2.38-0.22,2.38-4.15v-4.3
		c0-3.94,0-4.15-2.38-4.15v-0.79c1.48-0.22,3.36-0.58,3.97-0.83H47.42z"/>
	<path d="M93.12,176.25v0.79c-1.41,0.33-3.1,1.55-4.01,3.75c-0.65,1.59-1.62,3.65-2.38,4.69c1.88,2.67,3.1,4.12,5.23,4.12
		c1.23,0,2.09-0.76,2.56-1.55h0.79c-0.58,2.13-2.45,3.21-4.37,3.21c-3.36,0-5.38-2.56-6.06-3.43c-0.76,0.76-2.89,3.43-6.53,3.43
		c-3.21,0-6.71-2.42-6.71-6.54c0-3.32,1.95-4.95,5.81-7.51c-1.55-2.17-2.06-4.01-2.06-5.16c0-2.38,1.95-4.77,4.98-4.77
		c2.49,0,4.95,1.55,4.95,3.86c0,2.85-3.9,4.66-5.09,5.31c2.49,3.29,3.79,5.16,5.99,8.27c0.79-1.01,2.09-3.57,2.09-5.34
		c0-2.02-2.06-2.31-2.74-2.35v-0.79H93.12z M77.99,177.95c-1.12,0.65-3.83,2.71-3.83,5.52c0,2.85,2.67,6.03,5.67,6.03
		c1.84,0,3.29-0.87,4.55-2.38C82.21,183.76,80.37,181.12,77.99,177.95z M83.3,171.34c0-1.84-1.12-3.21-2.85-3.21
		c-1.95,0-2.82,1.55-2.82,2.96c0,1.8,1.55,3.94,2.13,4.69C82.79,174.01,83.3,172.53,83.3,171.34z"/>
	<path d="M106.5,182.75h0.87c0.32,1.66,1.52,7.51,7.11,7.51c3.25,0,5.31-2.2,5.31-4.66c0-3.39-3.57-4.66-5.88-5.67
		c-3.68-1.62-7.22-3.21-7.22-7.65c0-3.1,2.35-5.92,6.32-5.92c3.14,0,4.66,1.59,5.52,2.53c0.79-0.97,0.87-1.66,0.94-2.09h0.76v6.25
		h-0.76c-1.08-4.33-3.94-5.81-6.35-5.81c-2.67,0-4.12,1.77-4.12,3.65c0,2.85,2.96,4.19,5.74,5.38c4.62,1.99,7.58,3.47,7.58,7.98
		c0,3.47-2.2,6.9-7.51,6.9c-3.25,0-5.42-1.66-6.57-3c-0.22,0.33-0.58,0.87-0.87,2.31h-0.87V182.75z"/>
	<path d="M139.68,185.71c0,3.86,0,4.19,2.2,4.19v0.79c-1.23,0-2.89,0.11-3.86,0.58h-0.25c-0.58-1.05-0.61-2.64-0.61-3.47
		c-0.9,1.62-2.89,3.47-5.52,3.47c-4.19,0-4.48-3.32-4.48-4.84v-5.24c0-3.93,0-4.15-2.38-4.15v-0.79h4.91v10c0,1.52,0,3.79,2.78,3.79
		c0.97,0,4.69-0.87,4.69-5.16v-3.68c0-4.01,0-4.15-2.53-4.15v-0.79h5.05V185.71z"/>
	<path d="M149.02,185.75c0,3.14-0.25,4.15,1.99,4.15h0.54v0.79h-7.8v-0.79h0.61c1.62,0,2.13-0.22,2.13-2.74v-5.78
		c0-3.97-0.22-3.97-2.74-3.97v-0.79c1.08-0.04,3.39-0.5,4.91-0.94h0.36V185.75z M147.4,166.43c1.01,0,1.8,0.87,1.8,1.88
		s-0.79,1.88-1.8,1.88s-1.84-0.87-1.84-1.88S146.35,166.43,147.4,166.43z"/>
	<path d="M157.36,177.05v8.74c0,1.99,0,4.26,2.17,4.26c1.23,0,1.88-0.98,2.2-1.44l0.54,0.33c-1.12,2.35-3.5,2.35-3.75,2.35
		c-1.34,0-2.6-0.72-3.14-1.77c-0.47-0.87-0.54-1.62-0.54-4.26v-8.2h-2.09v-0.79c1.59-0.07,3.5-1.12,4.04-4.51h0.58v4.51h4.37v0.79
		H157.36z"/>
	<path d="M166.67,181.16c-0.04,0.51-0.07,1.08-0.07,1.7c0,1.84,0.07,7.47,4.73,7.47c0.79,0,3.25-0.07,4.58-2.89h0.83
		c-0.11,0.5-1.52,3.83-5.88,3.83c-3.18,0-7.18-2.42-7.18-7.69c0-4.48,2.96-7.91,7.04-7.91c3.75,0,5.92,2.78,6.03,5.49H166.67z
		 M173.64,180.44c0.04-0.22,0.07-0.4,0.07-0.72c0-2.38-1.7-3.25-3.14-3.25c-3.21,0-3.68,3.03-3.83,3.97H173.64z"/>
	<path d="M179.63,186.4h0.69c0.36,1.73,1.7,4.08,4.26,4.08c2.31,0,2.67-1.91,2.67-2.56c0-1.88-1.59-2.63-3.5-3.57
		c-1.73-0.87-4.08-2.02-4.08-4.66c0-1.73,1.3-4.01,3.86-4.01c1.3,0,2.31,0.54,3.14,1.52c0.29-0.33,0.65-1.19,0.69-1.26h0.65v4.48
		h-0.65c-0.29-1.37-1.44-3.94-3.75-3.94c-1.55,0-2.35,1.16-2.35,2.2c0,1.66,1.73,2.46,3.39,3.21c1.91,0.87,4.33,1.99,4.33,5.13
		c0,2.46-1.81,4.26-4.37,4.26c-1.88,0-2.71-0.83-3.54-1.62c-0.36,0.4-0.69,1.16-0.76,1.48h-0.69V186.4z"/>
</g>
</svg>
