<?xml version="1.0" encoding="utf-8"?>
<!-- Generator: Adobe Illustrator 26.1.0, SVG Export Plug-In . SVG Version: 6.00 Build 0)  -->
<svg version="1.1" id="Layer_1" xmlns="http://www.w3.org/2000/svg" xmlns:xlink="http://www.w3.org/1999/xlink" x="0px" y="0px"
	 viewBox="0 0 180 108" style="enable-background:new 0 0 180 108;" xml:space="preserve">
<style type="text/css">
	.st0{fill:#F9A5C7;}
	.st1{stroke:#000000;stroke-width:3;stroke-miterlimit:10;}
</style>
<path class="st0" d="M2.48,106.85c0-141.03,175.04-141.03,175.04,0"/>
<g>
	<polygon class="st1" points="78.88,53.49 78.88,66.51 83.4,66.51 83.4,48.67 96.48,48.67 96.48,65.8 101,65.8 101,53.56 
		112.78,53.44 112.78,105.42 67.22,105.42 67.22,53.49 	"/>
	<line class="st1" x1="78.88" y1="66.51" x2="78.88" y2="105.42"/>
	<line class="st1" x1="83.4" y1="66.51" x2="83.4" y2="105.42"/>
	<line class="st1" x1="96.48" y1="65.8" x2="96.48" y2="105.42"/>
	<line class="st1" x1="101" y1="65.8" x2="101" y2="105.42"/>
	<polyline class="st1" points="69.3,53.49 69.3,44.58 76.35,44.58 76.35,53.49 	"/>
	<polyline class="st1" points="103.49,53.49 103.49,44.58 110.54,44.58 110.54,53.49 	"/>
	<polygon class="st1" points="72.83,31.01 70.79,44.58 74.86,44.58 	"/>
	<polygon class="st1" points="107.02,31.01 104.98,44.58 109.05,44.58 	"/>
	<polyline class="st1" points="85.7,48.67 85.7,37.8 94.3,37.8 94.3,48.67 	"/>
	<polygon class="st1" points="90,20.44 87.4,37.8 92.6,37.8 	"/>
</g>
</svg>
