<?xml version="1.0" encoding="utf-8"?>
<!-- Generator: Adobe Illustrator 26.0.3, SVG Export Plug-In . SVG Version: 6.00 Build 0)  -->
<svg version="1.1" id="Layer_1" xmlns="http://www.w3.org/2000/svg" xmlns:xlink="http://www.w3.org/1999/xlink" x="0px" y="0px"
	 viewBox="0 0 50 50" style="enable-background:new 0 0 50 50;" xml:space="preserve">
<style type="text/css">
	.st0{fill:#184459;}
	.st1{fill:none;stroke:#184459;stroke-width:3;stroke-miterlimit:10;}
</style>
<g>
	<path class="st0" d="M40.46,3C44.06,3,47,5.94,47,9.54v30.91c0,3.61-2.94,6.54-6.54,6.54H9.54C5.94,47,3,44.06,3,40.46V9.54
		C3,5.94,5.94,3,9.54,3H40.46 M40.46,0H9.54C4.27,0,0,4.27,0,9.54v30.91C0,45.73,4.27,50,9.54,50h30.91c5.27,0,9.54-4.27,9.54-9.54
		V9.54C50,4.27,45.73,0,40.46,0L40.46,0z"/>
</g>
<g>
	<rect x="7.01" y="7.01" class="st0" width="10.32" height="10.32"/>
</g>
<g>
	<rect x="32.67" y="19.84" class="st0" width="10.32" height="10.32"/>
</g>
<g>
	<rect x="19.84" y="19.84" class="st0" width="10.32" height="10.32"/>
</g>
<g>
	<rect x="7.01" y="19.84" class="st0" width="10.32" height="10.32"/>
</g>
<g>
	<rect x="32.67" y="7.01" class="st0" width="10.32" height="10.32"/>
</g>
<g>
	<rect x="19.84" y="7.01" class="st0" width="10.32" height="10.32"/>
</g>
<g>
	<rect x="32.67" y="32.67" class="st0" width="10.32" height="10.32"/>
</g>
<g>
	<rect x="19.84" y="32.67" class="st0" width="10.32" height="10.32"/>
</g>
<g>
	<rect x="7.01" y="32.67" class="st0" width="10.32" height="10.32"/>
</g>
</svg>
