<?xml version="1.0" encoding="utf-8"?>
<!-- Generator: Adobe Illustrator 26.1.0, SVG Export Plug-In . SVG Version: 6.00 Build 0)  -->
<svg version="1.1" id="Layer_1" xmlns="http://www.w3.org/2000/svg" xmlns:xlink="http://www.w3.org/1999/xlink" x="0px" y="0px"
	 viewBox="0 0 25 25" style="enable-background:new 0 0 25 25;" xml:space="preserve">
<style type="text/css">
	.st0{fill:none;stroke:#FFFFFF;stroke-width:1.5;stroke-miterlimit:10;}
	.st1{fill:#FFFFFF;}
	.st2{fill:none;stroke:#FFFFFF;stroke-miterlimit:10;}
</style>
<rect x="-0.25" y="-0.28" width="25.62" height="25.62"/>
<path class="st0" d="M15.98,21.17H9.02c-2.86,0-5.19-2.34-5.19-5.19V9.02c0-2.86,2.34-5.19,5.19-5.19h6.95
	c2.86,0,5.19,2.34,5.19,5.19v6.95C21.17,18.83,18.83,21.17,15.98,21.17z"/>
<circle class="st1" cx="17.68" cy="7.59" r="0.9"/>
<path class="st2" d="M13.94,16.54h-2.87c-1.43,0-2.6-1.17-2.6-2.6v-2.87c0-1.43,1.17-2.6,2.6-2.6h2.87c1.43,0,2.6,1.17,2.6,2.6v2.87
	C16.54,15.37,15.37,16.54,13.94,16.54z"/>
</svg>
